<svg width="94" height="94" viewBox="0 0 94 94" fill="none" xmlns="http://www.w3.org/2000/svg">
<g filter="url(#filter0_dd)">
<circle cx="47" cy="37" r="27" fill="white"/>
</g>
<path d="M43.65 26.0496H48.8357C48.9143 25.9078 48.9929 25.8369 49.0714 25.695C49.5429 25.1277 50.25 24.7731 51.0357 24.7731C51.5071 24.7731 51.9786 24.9149 52.3714 25.1277L55.3571 27.0426L56.4571 27.7518L56.5357 27.8227C56.6929 27.8936 56.6929 28.1064 56.6143 28.1773C56.5357 28.3191 56.3 28.3191 56.2214 28.2482L54.7286 27.3972L52.0571 25.695C51.9 25.6241 51.7429 25.5532 51.6643 25.4823C51.5071 25.4113 51.35 25.4113 51.1143 25.4113C50.5643 25.4113 50.0929 25.6241 49.7786 26.0496C49.3071 26.7589 49.4643 27.6809 50.25 28.1064L57.4786 32.7872C57.7929 32.9291 58.1071 33 58.4214 33H64V27.9645H60.6214L53.1571 23.2837C52.8429 23.1418 52.5286 23 52.2143 23H43.65C42.7071 23 42 23.7092 42 24.4894C42 25.4113 42.7071 26.0496 43.65 26.0496Z" fill="#6FA6E7"/>
<path d="M48.8957 47.0333H43.8906C43.8148 47.185 43.739 47.2608 43.6631 47.4125C43.2081 48.0192 42.5256 48.3984 41.7673 48.3984C41.3123 48.3984 40.8573 48.2467 40.4781 48.0192L37.5964 45.9717L36.5347 45.2133L36.4589 45.1375C36.3072 45.0616 36.3072 44.8341 36.383 44.7583C36.4589 44.6066 36.6864 44.6066 36.7622 44.6825L38.2031 45.5925L40.7814 47.4125C40.9331 47.4883 41.0848 47.5642 41.1606 47.64C41.3123 47.7158 41.4639 47.7158 41.6914 47.7158C42.2223 47.7158 42.6773 47.4883 42.9806 47.0333C43.4356 46.275 43.284 45.2891 42.5256 44.8341L35.5489 39.8291C35.2455 39.6774 34.9422 39.6016 34.6388 39.6016H29.2546V44.9858H32.5155L39.7197 49.9909C40.0231 50.1425 40.3264 50.2942 40.6298 50.2942H48.8957C49.8057 50.2942 50.4882 49.5359 50.4882 48.7017C50.4882 47.7158 49.8057 47.0333 48.8957 47.0333Z" fill="#6FA6E7"/>
<circle cx="47.834" cy="36.947" r="6.57788" fill="#4A90E2" fill-opacity="0.25" stroke="#DCE9F9"/>
<path d="M48.1412 37.0001C48.1412 37.3692 47.853 37.6661 47.499 37.6661C47.1451 37.6661 46.8569 37.3672 46.8569 37.0001C46.8569 36.5006 46.6963 36.3341 46.2147 36.3341C45.7331 36.3341 45.5725 36.5006 45.5725 37.0001C45.5725 37.3692 45.2843 37.6661 44.9304 37.6661C44.5764 37.6661 44.2882 37.3672 44.2882 37.0001C44.2882 36.631 44.5764 36.3341 44.9304 36.3341C45.412 36.3341 45.5725 36.1676 45.5725 35.668C45.5725 35.2989 45.8607 35.002 46.2147 35.002C46.5687 35.002 46.8569 35.3009 46.8569 35.668C46.8569 36.1676 47.0174 36.3341 47.499 36.3341C47.8549 36.3341 48.1412 36.631 48.1412 37.0001Z" fill="#4A90E2"/>
<path d="M43.6422 39C43.9968 39 44.2843 38.7018 44.2843 38.334C44.2843 37.9661 43.9968 37.6679 43.6422 37.6679C43.2875 37.6679 43 37.9661 43 38.334C43 38.7018 43.2875 39 43.6422 39Z" fill="#4A90E2"/>
<path d="M52 35.666C52 36.0352 51.7118 36.3321 51.3578 36.3321C50.8762 36.3321 50.7157 36.4986 50.7157 36.9981C50.7157 37.3672 50.4275 37.6642 50.0735 37.6642C49.5919 37.6642 49.4313 37.8307 49.4313 38.3302C49.4313 38.6993 49.1431 38.9962 48.7892 38.9962C48.4352 38.9962 48.147 38.6973 48.147 38.3302C48.147 37.9611 48.4352 37.6642 48.7892 37.6642C49.2708 37.6642 49.4313 37.4976 49.4313 36.9981C49.4313 36.629 49.7195 36.3321 50.0735 36.3321C50.5551 36.3321 50.7157 36.1656 50.7157 35.666C50.7157 35.2969 51.0039 35 51.3578 35C51.7118 35 52 35.2989 52 35.666Z" fill="#4A90E2"/>
<defs>
<filter id="filter0_dd" x="0" y="0" width="94" height="94" filterUnits="userSpaceOnUse" color-interpolation-filters="sRGB">
<feFlood flood-opacity="0" result="BackgroundImageFix"/>
<feColorMatrix in="SourceAlpha" type="matrix" values="0 0 0 0 0 0 0 0 0 0 0 0 0 0 0 0 0 0 127 0"/>
<feOffset dy="10"/>
<feGaussianBlur stdDeviation="10"/>
<feColorMatrix type="matrix" values="0 0 0 0 0.290196 0 0 0 0 0.564706 0 0 0 0 0.886275 0 0 0 0.1 0"/>
<feBlend mode="normal" in2="BackgroundImageFix" result="effect1_dropShadow"/>
<feColorMatrix in="SourceAlpha" type="matrix" values="0 0 0 0 0 0 0 0 0 0 0 0 0 0 0 0 0 0 127 0"/>
<feOffset dy="1"/>
<feGaussianBlur stdDeviation="1.5"/>
<feColorMatrix type="matrix" values="0 0 0 0 0 0 0 0 0 0 0 0 0 0 0 0 0 0 0.05 0"/>
<feBlend mode="normal" in2="effect1_dropShadow" result="effect2_dropShadow"/>
<feBlend mode="normal" in="SourceGraphic" in2="effect2_dropShadow" result="shape"/>
</filter>
</defs>
</svg>
